<svg width="143" height="20" viewBox="0 0 143 20" fill="none" xmlns="http://www.w3.org/2000/svg">
<path fill-rule="evenodd" clip-rule="evenodd" d="M8.55988 0.0444447L83.1698 0.044448L93.6994 4.05927L106.317 4.05927L106.317 4.47407L118.535 4.91852C121.645 5.03704 143 7.02222 143 10.1333C143 10.3111 143 10.4741 143 10.6518C143 13.763 121.645 15.7482 118.535 15.8667L106.317 16.3111L106.317 16.7259L93.6994 16.7259L93.6994 16.637L83.1698 20L8.55987 20L4.9908 18.2519L4.9908 18.3111L2.94708 18.3111L2.94708 19.5556L-8.54801e-07 19.5556L0 -6.25073e-06L2.94708 -6.12191e-06L2.94708 1.24443L4.9908 1.24443L8.55988 0.0444447Z" fill="white"/>
</svg>
