<svg width="66" height="74" viewBox="0 0 66 74" fill="none" xmlns="http://www.w3.org/2000/svg">
<path d="M22.7871 0L20.431 3.65621L23.5416 5.624C9.80028 9.68258 0 22.313 0 36.9569C0 43.192 1.77842 49.2557 5.14301 54.492C8.41629 59.5865 13.0348 63.6815 18.4987 66.3339L20.425 62.4387C15.6842 60.1373 11.6769 56.5837 8.8361 52.1625C5.91961 47.6233 4.37793 42.3654 4.37793 36.9569C4.37793 24.3284 12.7795 13.4268 24.5882 9.84272L22.5226 13.0481L26.2125 15.3826L32.2621 5.99429L22.7871 0Z" fill="url(#paint0_linear)"/>
<path d="M66 37.0431C66 30.808 64.2216 24.7443 60.857 19.508C57.5837 14.4135 52.9652 10.3185 47.5013 7.66608L45.575 11.5613C50.3157 13.8629 54.3231 17.4163 57.1639 21.8375C60.0804 26.3767 61.6221 31.6346 61.6221 37.0431C61.6221 49.6718 53.2205 60.5732 41.4118 64.1573L43.4774 60.9519L39.7874 58.6174L33.7378 68.0057L43.2129 74L45.569 70.3438L42.4584 68.376C56.1997 64.3174 66 51.687 66 37.0431Z" fill="url(#paint1_linear)"/>
<path d="M49.2115 32.5678H34.4199L36.6274 9.61364L16.7885 41.8317H31.4512L28.8673 64.3864L49.2115 32.5678Z" fill="url(#paint2_linear)"/>
<defs>
<linearGradient id="paint0_linear" x1="0" y1="37" x2="66" y2="37" gradientUnits="userSpaceOnUse">
<stop stop-color="#262D30"/>
<stop offset="1" stop-color="#262D30"/>
</linearGradient>
<linearGradient id="paint1_linear" x1="0" y1="37" x2="66" y2="37" gradientUnits="userSpaceOnUse">
<stop stop-color="#262D30"/>
<stop offset="1" stop-color="#262D30"/>
</linearGradient>
<linearGradient id="paint2_linear" x1="0" y1="37" x2="66" y2="37" gradientUnits="userSpaceOnUse">
<stop stop-color="#262D30"/>
<stop offset="1" stop-color="#262D30"/>
</linearGradient>
</defs>
</svg>


