<svg width="76" height="76" viewBox="0 0 76 76" fill="none" xmlns="http://www.w3.org/2000/svg">
<path d="M25.1544 70.7832C21.2258 70.7832 18.0296 67.5872 18.0296 63.6582C18.0296 59.7299 21.2258 56.5338 25.1544 56.5338C29.0829 56.5338 32.2791 59.7299 32.2791 63.6582C32.2791 67.5872 29.0829 70.7832 25.1544 70.7832Z" fill="#262D30"/>
<path d="M12.1898 76C9.73412 76 7.7365 74.0025 7.7365 71.5469C7.7365 69.0913 9.73412 67.0938 12.1898 67.0938C14.645 67.0938 16.6432 69.0913 16.6432 71.5469C16.6432 74.0025 14.645 76 12.1898 76ZM12.1898 71.5469C12.1875 71.5469 12.1869 71.5469 12.1869 71.5469H12.1898Z" fill="#262D30"/>
<path d="M72.2263 24.0167C70.2182 21.8365 67.6129 20.3516 64.7571 19.7323C63.8264 14.537 61.1985 9.78412 57.2456 6.20364C52.8294 2.20337 47.1125 0 41.1492 0C31.5525 0 22.948 5.70673 19.1621 14.3863C18.4042 14.2831 17.6376 14.2314 16.8687 14.2314C7.56718 14.2314 0 21.7983 0 31.0994C0 40.4005 7.56718 47.9679 16.8687 47.9679H23.2536C25.2953 51.5275 29.0788 53.7564 33.2672 53.7564C37.4549 53.7564 41.2391 51.5275 43.2808 47.9679H61.718C69.5931 47.9679 76 41.5608 76 33.686C76 30.0922 74.6599 26.6584 72.2263 24.0167ZM22.2968 37.7513H14.6728C13.7699 37.7513 13.4615 37.0624 13.4615 36.4687C13.4615 35.8749 13.7937 35.3525 14.1028 34.9483L18.3068 29.415H14.6728C14.1028 29.415 13.6279 28.7499 13.6279 27.9184C13.6279 27.1345 14.0315 26.4456 14.6728 26.4456H21.7743C22.3681 26.4456 22.9143 26.826 22.9143 27.6569C22.9143 28.1794 22.7004 28.7493 22.3206 29.2486L18.0928 34.7819H22.2968C22.8668 34.7819 23.3417 35.447 23.3417 36.2785C23.3417 37.0624 22.9381 37.7513 22.2968 37.7513ZM37.1714 29.1419H29.0707C28.1122 29.1419 27.784 28.4101 27.784 27.7793C27.784 27.1484 28.1372 26.5935 28.4654 26.1644L32.932 20.2849H29.0707C28.4654 20.2849 27.9609 19.5781 27.9609 18.695C27.9609 17.8624 28.3894 17.1306 29.0707 17.1306H36.6159C37.2468 17.1306 37.8272 17.5348 37.8272 18.4178C37.8272 18.9727 37.6005 19.5781 37.1963 20.1086L32.7047 25.9876H37.1714C37.7768 25.9876 38.2818 26.6944 38.2818 27.5775C38.2818 28.4101 37.8527 29.1419 37.1714 29.1419ZM55.0282 37.9983H44.2781C43.4704 37.9983 43.1422 37.5692 43.1422 36.9633C43.1422 36.5597 43.2935 36.0552 43.5713 35.5757L50.6873 22.984H44.8331C44.0764 22.984 43.6473 22.1763 43.6473 21.2677C43.6473 20.4351 44.0004 19.552 44.8331 19.552H54.5736C55.3309 19.552 55.7095 19.9811 55.7095 20.5864C55.7095 20.9906 55.5582 21.4695 55.2804 21.9745L48.1644 34.5662H55.0282C55.7849 34.5662 56.214 35.4742 56.214 36.282C56.214 37.0897 55.7849 37.9983 55.0282 37.9983Z" fill="#262D30"/>
</svg>
