<svg width="72" height="72" viewBox="0 0 72 72" fill="none" xmlns="http://www.w3.org/2000/svg">
<path d="M10.7666 16.5592C12.1653 13.0977 15.3802 10.7066 19.098 10.3632C20.2243 7.15096 22.1786 4.29276 24.7638 2.07864C17.4475 -1.95787 8.27302 0.0359049 3.29213 6.74542C-1.68876 13.4549 -0.941685 22.813 5.0399 28.648L10.7666 16.5592Z" fill="#262D30"/>
<path d="M22.3544 28.9035L21.8571 29.1239V32.6244C22.866 32.2979 23.8416 31.8742 24.7689 31.3594C23.8925 30.6149 23.0845 29.7925 22.3544 28.9035Z" fill="#262D30"/>
<path d="M41.1429 16.7168C41.1429 18.8474 39.4158 20.5738 37.2857 20.5738C35.155 20.5738 33.4286 18.8474 33.4286 16.7168C33.4286 14.5868 35.155 12.8598 37.2857 12.8598C39.4158 12.8598 41.1429 14.5868 41.1429 16.7168Z" fill="#262D30"/>
<path d="M43.3376 52.3385L41.5195 50.5205L44.4212 47.619C37.7201 41.8781 27.7314 42.2535 21.4805 48.4815C21.1126 48.8494 20.5595 48.9593 20.0792 48.7603C19.599 48.5613 19.2857 48.0929 19.2857 47.5725V28.2877C19.2857 27.7798 19.5845 27.3191 20.0491 27.1132L20.8502 26.7566C18.3239 22.6768 17.4325 17.7928 18.3547 13.0839C15.9804 13.6395 14.0267 15.3194 13.1221 17.5837L0 45.2906V56.0103L17.2197 72H48.8571V46.9379C48.2902 47.4338 47.7321 47.9442 47.1948 48.4803L43.3376 52.3385ZM7.61509 44.2109L5.24142 43.2209L9.52797 32.9356L11.9004 33.9256L7.61509 44.2109ZM12.9714 31.3543L10.599 30.3643L11.67 27.793L14.0437 28.783L12.9714 31.3543Z" fill="#262D30"/>
<path d="M71.1167 38.5729C63.9881 38.5554 57.0391 40.8071 51.2754 45.0012H51.4286V72H72V38.5729H71.1167Z" fill="#262D30"/>
<path d="M37.2857 0.00326137C28.0547 0.00326137 20.5714 7.48618 20.5714 16.7168C20.5714 25.9474 28.0547 33.4303 37.2857 33.4303C46.5167 33.4303 54 25.9474 54 16.7168C53.9893 7.49058 46.5123 0.0139333 37.2857 0.00326137ZM37.2857 29.5733C30.1848 29.5733 24.4286 23.8174 24.4286 16.7168C24.4286 9.61681 30.1848 3.86023 37.2857 3.86023C44.3867 3.86023 50.1429 9.61681 50.1429 16.7168C50.1347 23.8143 44.3829 29.5658 37.2857 29.5733Z" fill="#262D30"/>
<path d="M37.2857 6.43154C31.6048 6.43154 27 11.0368 27 16.7168C27 22.3974 31.6048 27.002 37.2857 27.002C42.966 27.002 47.5714 22.3974 47.5714 16.7168C47.5652 11.0393 42.9634 6.43845 37.2857 6.43154ZM37.2857 23.1451C33.7349 23.1451 30.8571 20.2674 30.8571 16.7168C30.8571 13.1668 33.7349 10.2885 37.2857 10.2885C40.8359 10.2885 43.7143 13.1668 43.7143 16.7168C43.7099 20.2655 40.834 23.1413 37.2857 23.1451Z" fill="#262D30"/>
</svg>
