<svg width="68" height="68" viewBox="0 0 68 68" fill="none" xmlns="http://www.w3.org/2000/svg">
<path d="M61.8906 52.0625H53.9219C52.8217 52.0625 51.9297 51.1705 51.9297 50.0703V1.99219C51.9297 0.891969 52.8217 0 53.9219 0H61.8906C62.9908 0 63.8828 0.891969 63.8828 1.99219V50.0703C63.8828 51.1705 62.9908 52.0625 61.8906 52.0625Z" fill="#262D30"/>
<path d="M45.9531 52.0625H37.9844C36.8842 52.0625 35.9922 51.1705 35.9922 50.0703V10.2266C35.9922 9.12634 36.8842 8.23438 37.9844 8.23438H45.9531C47.0533 8.23438 47.9453 9.12634 47.9453 10.2266V50.0703C47.9453 51.1705 47.0533 52.0625 45.9531 52.0625Z" fill="#262D30"/>
<path d="M30.0156 52.0625H22.0469C20.9467 52.0625 20.0547 51.1705 20.0547 50.0703V18.1953C20.0547 17.0951 20.9467 16.2031 22.0469 16.2031H30.0156C31.1158 16.2031 32.0078 17.0951 32.0078 18.1953V50.0703C32.0078 51.1705 31.1158 52.0625 30.0156 52.0625Z" fill="#262D30"/>
<path d="M14.0781 52.0625H6.10938C5.00916 52.0625 4.11719 51.1705 4.11719 50.0703V26.1641C4.11719 25.0638 5.00916 24.1719 6.10938 24.1719H14.0781C15.1783 24.1719 16.0703 25.0638 16.0703 26.1641V50.0703C16.0703 51.1705 15.1783 52.0625 14.0781 52.0625Z" fill="#262D30"/>
<path d="M32.0078 62.0234C32.0078 62.7048 32.0769 63.3715 32.2084 64.0156H1.99219C0.8925 64.0156 0 63.1231 0 62.0234C0 60.9238 0.8925 60.0312 1.99219 60.0312H32.2084C32.0769 60.6754 32.0078 61.3421 32.0078 62.0234Z" fill="#262D30"/>
<path d="M68 62.0234C68 63.1231 67.1075 64.0156 66.0078 64.0156H51.7291C51.8606 63.3715 51.9297 62.7048 51.9297 62.0234C51.9297 61.3421 51.8606 60.6754 51.7291 60.0312H66.0078C67.1075 60.0312 68 60.9238 68 62.0234Z" fill="#262D30"/>
<path d="M41.9688 68C38.6733 68 35.9922 65.3189 35.9922 62.0234C35.9922 58.728 38.6733 56.0469 41.9688 56.0469C45.2642 56.0469 47.9453 58.728 47.9453 62.0234C47.9453 65.3189 45.2642 68 41.9688 68Z" fill="#262D30"/>
</svg>
