<svg width="24" height="16" viewBox="0 0 24 16" fill="none" xmlns="http://www.w3.org/2000/svg">
<path d="M11.9991 16C11.9971 16 11.9949 16 11.9927 16C11.2685 15.9954 4.86644 15.9416 3.0526 15.489C1.78496 15.1746 0.784286 14.2525 0.442611 13.0829C-0.0319978 11.4391 -0.0017854 8.27433 0.0015105 8.02162C-0.00160229 7.7701 -0.0321809 4.57915 0.441147 2.92185C0.441696 2.92033 0.442062 2.91864 0.442611 2.91712C0.780441 1.76085 1.80363 0.810152 3.04948 0.494943C3.0526 0.494098 3.05589 0.493423 3.05901 0.492578C4.85234 0.0577715 11.2671 0.00456092 11.9927 0H12.0057C12.7317 0.00456092 19.1509 0.0584472 20.948 0.511666C22.2124 0.825186 23.2123 1.74615 23.5549 2.91425C24.0473 4.57273 24.0017 7.7706 23.9967 8.04054C24.0002 8.30643 24.029 11.4428 23.5571 13.0949C23.5567 13.0966 23.5562 13.0981 23.5558 13.0996C23.214 14.2692 22.2135 15.1914 20.9444 15.5061C20.9427 15.5066 20.9409 15.5069 20.9393 15.5074C19.1461 15.9421 12.7312 15.9953 12.0057 16C12.0035 16 12.0013 16 11.9991 16ZM2.25352 3.36544C1.83678 4.82831 1.87614 7.97855 1.87651 8.0103V8.03311C1.86406 8.90678 1.90782 11.4369 2.25371 12.6352C2.42143 13.2091 2.9149 13.6636 3.54076 13.8189C4.87907 14.1528 10.0934 14.2579 11.9991 14.2702C13.9098 14.2579 19.1318 14.1557 20.4602 13.8351C21.0841 13.6793 21.5759 13.2263 21.7447 12.6518C22.091 11.4359 22.1344 8.91809 22.1217 8.05C22.1217 8.04088 22.1217 8.03176 22.1219 8.02264C22.1391 7.1385 22.1053 4.57881 21.7464 3.37085C21.746 3.36967 21.7456 3.36848 21.7455 3.3673C21.577 2.79094 21.0834 2.33637 20.4575 2.18113C19.1322 1.84683 13.9095 1.7421 11.9991 1.72977C10.0897 1.7421 4.87285 1.84413 3.54039 2.1644C2.92644 2.3215 2.4218 2.79229 2.25352 3.36544ZM9.60942 11.5026V4.49722L16.1719 8L9.60942 11.5026Z" fill="white"/>
</svg>
